<svg xmlns="http://www.w3.org/2000/svg" width="1200" height="720" viewBox="0 0 1200 720"><rect width="100%" height="100%" fill="#DDDDDD"/><path fill="#999999" d="M256.29 311.85v78.81h-14.71v-78.81h14.71Zm28.94 78.81h-13.46v-55.92H280q2.62 0 3.43 2.46l.88 4.14q1.47-1.64 3.08-3 1.6-1.36 3.43-2.34 1.82-.98 3.92-1.56 2.1-.57 4.61-.57 5.28 0 8.69 2.86 3.41 2.86 5.1 7.6 1.3-2.77 3.27-4.76 1.96-1.99 4.3-3.25 2.35-1.25 4.99-1.85 2.64-.6 5.31-.6 4.64 0 8.23 1.42 3.6 1.42 6.05 4.14 2.45 2.72 3.74 6.65 1.28 3.92 1.28 8.99v35.59h-13.47v-35.59q0-5.34-2.34-8.04-2.34-2.7-6.87-2.7-2.07 0-3.84.71t-3.1 2.05q-1.34 1.33-2.1 3.35-.77 2.02-.77 4.63v35.59h-13.51v-35.59q0-5.61-2.26-8.17-2.27-2.57-6.63-2.57-2.94 0-5.47 1.45-2.54 1.44-4.72 3.95v40.93Zm107.37-14.44v-9.43q-5.83.27-9.81 1.01-3.98.73-6.38 1.88-2.4 1.14-3.43 2.67-1.04 1.52-1.04 3.32 0 3.54 2.1 5.07 2.1 1.53 5.48 1.53 4.14 0 7.16-1.5 3.03-1.5 5.92-4.55Zm-28.45-29.38-2.4-4.3q9.65-8.83 23.22-8.83 4.9 0 8.77 1.61 3.87 1.6 6.54 4.46 2.67 2.87 4.06 6.84 1.39 3.98 1.39 8.72v35.32h-6.1q-1.91 0-2.94-.57-1.04-.57-1.64-2.32l-1.2-4.03q-2.12 1.91-4.14 3.35-2.02 1.44-4.2 2.43-2.18.98-4.66 1.49-2.48.52-5.47.52-3.55 0-6.54-.95-3-.96-5.18-2.86-2.18-1.91-3.38-4.74-1.2-2.84-1.2-6.6 0-2.12.71-4.22.71-2.1 2.32-4.01 1.6-1.91 4.16-3.6 2.57-1.68 6.3-2.94 3.73-1.25 8.69-2.04 4.96-.79 11.34-.96v-3.27q0-5.61-2.4-8.31t-6.92-2.7q-3.27 0-5.42.77-2.16.76-3.79 1.71-1.64.96-2.97 1.72-1.34.76-2.97.76-1.42 0-2.4-.73-.98-.74-1.58-1.72Zm74.66 14.5q2.51 0 4.36-.68 1.86-.68 3.08-1.88 1.23-1.2 1.86-2.89.62-1.69.62-3.71 0-4.14-2.48-6.56-2.48-2.43-7.44-2.43-4.96 0-7.44 2.43-2.48 2.42-2.48 6.56 0 1.96.63 3.65t1.85 2.92q1.23 1.23 3.11 1.91 1.88.68 4.33.68Zm15.21 31.83q0-1.64-.98-2.67-.98-1.04-2.67-1.61-1.69-.57-3.95-.85-2.27-.27-4.8-.4-2.53-.14-5.23-.25-2.7-.11-5.26-.44-2.24 1.26-3.62 2.95-1.39 1.69-1.39 3.92 0 1.47.73 2.75.74 1.28 2.34 2.21 1.61.93 4.17 1.44 2.57.52 6.27.52 3.76 0 6.49-.57 2.72-.57 4.49-1.58 1.77-1.01 2.59-2.4.82-1.39.82-3.02Zm-2.67-56.52h16.08v5.01q0 2.4-2.89 2.95l-5.02.92q1.15 2.89 1.15 6.33 0 4.14-1.66 7.49-1.67 3.35-4.61 5.7-2.94 2.34-6.95 3.62-4 1.28-8.64 1.28-1.63 0-3.16-.16-1.52-.17-2.99-.44-2.62 1.58-2.62 3.54 0 1.69 1.55 2.48 1.56.79 4.12 1.12 2.56.33 5.83.41 3.27.08 6.7.35 3.44.28 6.71.96 3.27.68 5.83 2.15 2.56 1.47 4.11 4.01 1.56 2.53 1.56 6.51 0 3.7-1.83 7.19t-5.29 6.22q-3.46 2.72-8.5 4.38-5.04 1.66-11.47 1.66-6.32 0-11.01-1.22-4.69-1.23-7.79-3.27-3.11-2.05-4.64-4.72-1.52-2.67-1.52-5.55 0-3.93 2.37-6.57 2.37-2.65 6.51-4.23-2.23-1.14-3.54-3.05t-1.31-5.01q0-1.26.46-2.59.47-1.34 1.37-2.64.9-1.31 2.26-2.48 1.36-1.18 3.21-2.1-4.25-2.29-6.67-6.11-2.43-3.81-2.43-8.93 0-4.15 1.66-7.5 1.67-3.35 4.64-5.72 2.97-2.37 7.03-3.62 4.06-1.26 8.85-1.26 3.6 0 6.76.74 3.16.73 5.78 2.15Zm35.21 19.62h25.39q0-2.62-.73-4.93-.74-2.32-2.21-4.06-1.47-1.75-3.73-2.75-2.27-1.01-5.26-1.01-5.83 0-9.19 3.32-3.35 3.33-4.27 9.43Zm34.33 8.12h-34.61q.33 4.31 1.53 7.44 1.2 3.13 3.16 5.18 1.96 2.04 4.66 3.05 2.7 1.01 5.97 1.01 3.27 0 5.64-.77 2.37-.76 4.14-1.68 1.77-.93 3.11-1.69 1.33-.77 2.59-.77 1.69 0 2.5 1.26l3.87 4.9q-2.23 2.62-5.01 4.39-2.78 1.77-5.81 2.83-3.02 1.07-6.15 1.5-3.14.44-6.08.44-5.83 0-10.85-1.94-5.01-1.93-8.72-5.72-3.7-3.79-5.83-9.37-2.12-5.59-2.12-12.95 0-5.72 1.85-10.76t5.31-8.78q3.46-3.73 8.45-5.91 4.99-2.18 11.25-2.18 5.29 0 9.76 1.69t7.68 4.93q3.22 3.25 5.05 7.96 1.82 4.71 1.82 10.76 0 3.06-.65 4.12-.66 1.06-2.51 1.06Zm24.91-27.19.92 4.41q1.69-1.69 3.57-3.13 1.88-1.45 3.98-2.46 2.1-1 4.5-1.58 2.4-.57 5.23-.57 4.58 0 8.12 1.55 3.54 1.56 5.91 4.36 2.37 2.81 3.6 6.71 1.23 3.89 1.23 8.58v35.59H569.4v-35.59q0-5.12-2.35-7.93-2.34-2.81-7.14-2.81-3.49 0-6.54 1.59-3.05 1.58-5.77 4.3v40.44h-13.47v-55.92h8.23q2.62 0 3.44 2.46Zm111.4 36.89v-25.07q-2.29-2.78-4.99-3.92-2.7-1.15-5.81-1.15-3.05 0-5.5 1.15-2.45 1.14-4.2 3.46-1.74 2.32-2.67 5.88-.92 3.57-.92 8.43 0 4.9.79 8.31.79 3.4 2.26 5.56 1.47 2.15 3.6 3.1 2.12.96 4.74.96 4.19 0 7.14-1.75 2.94-1.74 5.56-4.96Zm0-64.42h13.46v80.99h-8.23q-2.67 0-3.38-2.45l-1.15-5.4q-3.38 3.87-7.76 6.27-4.39 2.4-10.22 2.4-4.58 0-8.39-1.91-3.82-1.91-6.57-5.53-2.75-3.63-4.25-8.97-1.5-5.34-1.5-12.2 0-6.22 1.69-11.56 1.69-5.34 4.85-9.26 3.16-3.93 7.57-6.14 4.42-2.2 9.92-2.2 4.69 0 8.01 1.47 3.33 1.47 5.95 3.98v-29.49Zm37.38 46.6h25.4q0-2.62-.74-4.93-.73-2.32-2.2-4.06-1.48-1.75-3.74-2.75-2.26-1.01-5.26-1.01-5.83 0-9.18 3.32-3.35 3.33-4.28 9.43Zm34.34 8.12h-34.61q.33 4.31 1.53 7.44 1.19 3.13 3.16 5.18 1.96 2.04 4.66 3.05 2.69 1.01 5.96 1.01t5.65-.77q2.37-.76 4.14-1.68 1.77-.93 3.1-1.69 1.34-.77 2.59-.77 1.69 0 2.51 1.26l3.87 4.9q-2.24 2.62-5.02 4.39-2.77 1.77-5.8 2.83-3.02 1.07-6.16 1.5-3.13.44-6.07.44-5.84 0-10.85-1.94-5.01-1.93-8.72-5.72-3.71-3.79-5.83-9.37-2.13-5.59-2.13-12.95 0-5.72 1.86-10.76 1.85-5.04 5.31-8.78 3.46-3.73 8.45-5.91 4.98-2.18 11.25-2.18 5.29 0 9.76 1.69t7.68 4.93q3.22 3.25 5.04 7.96 1.83 4.71 1.83 10.76 0 3.06-.66 4.12-.65 1.06-2.5 1.06Zm30.63 26.27h-13.47v-45.78l-4.85-.76q-1.58-.33-2.53-1.12-.95-.79-.95-2.26v-5.51h8.33v-4.14q0-4.79 1.45-8.61 1.44-3.81 4.14-6.49 2.7-2.67 6.57-4.08 3.87-1.42 8.72-1.42 3.87 0 7.19 1.04l-.27 6.75q-.05.77-.44 1.23-.38.46-1 .71-.63.24-1.45.33-.82.08-1.74.08-2.4 0-4.28.52-1.88.51-3.19 1.79t-1.99 3.38q-.68 2.1-.68 5.21v3.7h14.55v9.6h-14.11v45.83Zm51.23-14.44v-9.43q-5.84.27-9.81 1.01-3.98.73-6.38 1.88-2.4 1.14-3.43 2.67-1.04 1.52-1.04 3.32 0 3.54 2.1 5.07 2.1 1.53 5.48 1.53 4.14 0 7.16-1.5 3.03-1.5 5.92-4.55Zm-28.45-29.38-2.4-4.3q9.65-8.83 23.22-8.83 4.9 0 8.77 1.61 3.87 1.6 6.54 4.46 2.67 2.87 4.06 6.84 1.39 3.98 1.39 8.72v35.32h-6.1q-1.91 0-2.95-.57-1.03-.57-1.63-2.32l-1.2-4.03q-2.13 1.91-4.14 3.35-2.02 1.44-4.2 2.43-2.18.98-4.66 1.49-2.48.52-5.48.52-3.54 0-6.54-.95-2.99-.96-5.17-2.86-2.18-1.91-3.38-4.74-1.2-2.84-1.2-6.6 0-2.12.71-4.22.71-2.1 2.31-4.01 1.61-1.91 4.17-3.6 2.56-1.68 6.3-2.94 3.73-1.25 8.69-2.04 4.96-.79 11.34-.96v-3.27q0-5.61-2.4-8.31t-6.92-2.7q-3.27 0-5.43.77-2.15.76-3.78 1.71-1.64.96-2.97 1.72-1.34.76-2.97.76-1.42 0-2.4-.73-.98-.74-1.58-1.72Zm88.94-12.1h13.46v55.92h-8.23q-2.67 0-3.38-2.45l-.92-4.47q-3.44 3.49-7.58 5.64-4.14 2.15-9.75 2.15-4.58 0-8.1-1.55-3.51-1.55-5.91-4.39-2.4-2.83-3.62-6.73-1.23-3.9-1.23-8.58v-35.54h13.46v35.54q0 5.12 2.37 7.93 2.37 2.8 7.11 2.8 3.49 0 6.54-1.55 3.06-1.55 5.78-4.28v-40.44Zm26.92-25.07h13.47v80.99h-13.47v-80.99Zm45.57 81.86q-7.31 0-11.2-4.11-3.9-4.12-3.9-11.37v-31.22h-5.72q-1.09 0-1.86-.71-.76-.71-.76-2.13v-5.34l8.99-1.47 2.84-15.26q.27-1.09 1.03-1.69.77-.6 1.97-.6h6.97v17.6h14.93v9.6h-14.93v30.3q0 2.61 1.28 4.08 1.28 1.48 3.52 1.48 1.25 0 2.1-.3.84-.3 1.47-.63.62-.33 1.11-.63.49-.3.99-.3.59 0 .98.3.38.3.81.9l4.04 6.54q-2.95 2.45-6.76 3.71-3.82 1.25-7.9 1.25Z"/></svg>